<svg t="1741519571972" class="icon" viewBox="0 0 1024 1024" version="1.1" xmlns="http://www.w3.org/2000/svg" p-id="1627" width="200" height="200"><path d="M386.18112 139.85792c15.30368 0 28.39552 5.2992 39.28576 15.89248s16.3328 23.54176 16.3328 38.84544v220.72832c0 15.30368-5.44256 28.40064-16.3328 39.28576-10.89024 10.89024-23.98208 16.3328-39.28576 16.3328H165.4528c-15.30368 0-28.25216-5.44256-38.84544-16.3328-10.5984-10.88512-15.89248-23.98208-15.89248-39.28576V194.59584c0-15.30368 5.29408-28.25216 15.89248-38.84544 10.59328-10.59328 23.54176-15.89248 38.84544-15.89248h220.72832z m0 441.45152c15.30368 0 28.39552 5.29408 39.28576 15.89248 10.89024 10.59328 16.3328 23.54176 16.3328 38.84544v221.60896c0 15.30368-5.44256 28.25216-16.3328 38.84544-10.89024 10.5984-23.98208 15.89248-39.28576 15.89248H165.4528c-15.30368 0-28.25216-5.29408-38.84544-15.89248-10.5984-10.59328-15.89248-23.54176-15.89248-38.84544v-221.60896c0-15.30368 5.29408-28.25216 15.89248-38.84544 10.59328-10.5984 23.54176-15.89248 38.84544-15.89248h220.72832z m442.33216 0c15.30368 0 28.25216 5.29408 38.84544 15.89248 10.59328 10.59328 15.89248 23.54176 15.89248 38.84544v221.60896c0 15.30368-5.2992 28.25216-15.89248 38.84544-10.59328 10.5984-23.54176 15.89248-38.84544 15.89248h-220.72832c-15.30368 0-28.39552-5.29408-39.28576-15.89248-10.89024-10.59328-16.3328-23.54176-16.3328-38.84544v-221.60896c0-15.30368 5.44256-28.25216 16.3328-38.84544 10.89024-10.5984 23.98208-15.89248 39.28576-15.89248h220.72832z m122.72128-344.33536c11.77088 11.776 17.65888 25.60512 17.65888 41.4976s-5.888 29.42976-17.65888 40.61696l-164.21888 164.21888c-11.77088 11.77088-25.45664 17.65376-41.05728 17.65376-15.59552 0-29.28128-5.88288-41.05216-17.65376l-164.21888-164.21888c-11.18208-11.1872-16.77824-24.72448-16.77824-40.61696s5.59616-29.7216 16.77824-41.4976l164.21888-164.21888c11.77088-11.18208 25.45664-16.77312 41.05216-16.77312 15.60064 0 29.2864 5.59104 41.05728 16.77312l164.21888 164.21888z" p-id="1628"></path></svg>